<?xml version="1.0" encoding="UTF-8"?>
<svg version="1.1" xmlns="http://www.w3.org/2000/svg" width="446" height="86">
<path d="M0 0 C4.62 0 9.24 0 14 0 C15.39179267 4.17537801 16.38497369 7.58683691 17.0703125 11.8359375 C17.24433594 12.89941406 17.41835938 13.96289062 17.59765625 15.05859375 C17.77167969 16.15300781 17.94570313 17.24742188 18.125 18.375 C18.30675781 19.49261719 18.48851563 20.61023438 18.67578125 21.76171875 C19.12161701 24.50712843 19.56287765 27.25319186 20 30 C21.75407223 28.24592777 21.58797721 25.70667212 21.9375 23.3203125 C22.11023438 22.16402344 22.28296875 21.00773437 22.4609375 19.81640625 C22.63882813 18.59824219 22.81671875 17.38007813 23 16.125 C23.35177247 13.73141775 23.70583375 11.33817043 24.0625 8.9453125 C24.21847656 7.87812988 24.37445313 6.81094727 24.53515625 5.71142578 C25 3 25 3 26 0 C30.95 0 35.9 0 41 0 C41 19.8 41 39.6 41 60 C36.05 60.495 36.05 60.495 31 61 C30 60 30 60 29.88647461 57.31616211 C29.89171143 56.14835205 29.89694824 54.98054199 29.90234375 53.77734375 C29.90556641 52.51728516 29.90878906 51.25722656 29.91210938 49.95898438 C29.92046597 48.61848891 29.92893093 47.27799412 29.9375 45.9375 C29.9425134 44.59310058 29.94707658 43.2486994 29.95117188 41.90429688 C29.96300512 38.60282059 29.97949029 35.30143197 30 32 C29.91435791 32.70084717 29.82871582 33.40169434 29.74047852 34.1237793 C29.34977513 37.31192944 28.95616679 40.49971447 28.5625 43.6875 C28.42779297 44.79029297 28.29308594 45.89308594 28.15429688 47.02929688 C28.02216797 48.09599609 27.89003906 49.16269531 27.75390625 50.26171875 C27.63345947 51.24100342 27.5130127 52.22028809 27.38891602 53.22924805 C27.02152575 55.8466442 26.54676123 58.41474783 26 61 C23 62 23 62 14 62 C12.68 53.42 11.36 44.84 10 36 C10.03959276 44.51162825 10.03959276 44.51162825 10.09008789 53.02319336 C10.09258545 54.07643799 10.09508301 55.12968262 10.09765625 56.21484375 C10.10289307 57.29886475 10.10812988 58.38288574 10.11352539 59.49975586 C10 62 10 62 9 63 C4.545 63.495 4.545 63.495 0 64 C0 42.88 0 21.76 0 0 Z " fill="#DB202C" transform="translate(10,10)"/>
<path d="M0 0 C1.084021 0.00523682 2.16804199 0.01047363 3.28491211 0.01586914 C5.03964844 0.02070313 5.03964844 0.02070313 6.82983398 0.02563477 C8.67738281 0.03820313 8.67738281 0.03820313 10.56225586 0.05102539 C12.41560547 0.05779297 12.41560547 0.05779297 14.30639648 0.06469727 C17.37089703 0.07652931 20.43530307 0.09301366 23.49975586 0.11352539 C23.60288086 0.69102539 23.70600586 1.26852539 23.81225586 1.86352539 C24.3524694 4.19000381 24.3524694 4.19000381 26.03955078 5.84863281 C28.19508454 9.1920347 27.90927751 12.50222361 27.86303711 16.35180664 C27.86353561 17.1507988 27.86403412 17.94979095 27.86454773 18.772995 C27.86221058 20.46164437 27.85250314 22.15029745 27.8359375 23.83886719 C27.81243318 26.4066534 27.81536834 28.97339388 27.82202148 31.54125977 C27.81644104 33.18644818 27.80932887 34.83163225 27.80053711 36.47680664 C27.80190422 37.61778557 27.80190422 37.61778557 27.80329895 38.78181458 C27.74140386 43.5046418 27.3950426 47.71461776 25.49975586 52.11352539 C20.32701649 56.29411639 13.93933602 55.45266863 7.62475586 55.30102539 C6.55483398 55.28749023 5.48491211 55.27395508 4.38256836 55.26000977 C1.75444075 55.22481163 -0.87263608 55.17557232 -3.50024414 55.11352539 C-3.52551019 47.44141337 -3.54307537 39.76931199 -3.55517578 32.09716797 C-3.56021791 29.4848592 -3.56705139 26.87255328 -3.57568359 24.26025391 C-3.5877545 20.51472271 -3.5934735 16.76922867 -3.59790039 13.02368164 C-3.60306168 11.84765884 -3.60822296 10.67163605 -3.61354065 9.4599762 C-3.61365395 7.83840858 -3.61365395 7.83840858 -3.61376953 6.18408203 C-3.61599014 5.22699844 -3.61821075 4.26991486 -3.62049866 3.28382874 C-3.44669624 0.14711527 -3.15475654 0.143244 0 0 Z M7.49975586 9.11352539 C7.49975586 9.44352539 7.49975586 9.77352539 7.49975586 10.11352539 C9.80975586 10.11352539 12.11975586 10.11352539 14.49975586 10.11352539 C14.49975586 9.78352539 14.49975586 9.45352539 14.49975586 9.11352539 C12.18975586 9.11352539 9.87975586 9.11352539 7.49975586 9.11352539 Z M14.49975586 10.11352539 C14.49975586 21.00352539 14.49975586 31.89352539 14.49975586 43.11352539 C15.48975586 42.61852539 15.48975586 42.61852539 16.49975586 42.11352539 C16.49975586 31.88352539 16.49975586 21.65352539 16.49975586 11.11352539 C15.83975586 10.78352539 15.17975586 10.45352539 14.49975586 10.11352539 Z M8.49975586 11.11352539 C8.49975586 21.34352539 8.49975586 31.57352539 8.49975586 42.11352539 C8.82975586 42.11352539 9.15975586 42.11352539 9.49975586 42.11352539 C9.49975586 31.88352539 9.49975586 21.65352539 9.49975586 11.11352539 C9.16975586 11.11352539 8.83975586 11.11352539 8.49975586 11.11352539 Z M10.49975586 11.11352539 C10.49975586 21.34352539 10.49975586 31.57352539 10.49975586 42.11352539 C11.48975586 42.11352539 12.47975586 42.11352539 13.49975586 42.11352539 C13.49975586 31.88352539 13.49975586 21.65352539 13.49975586 11.11352539 C12.50975586 11.11352539 11.51975586 11.11352539 10.49975586 11.11352539 Z M7.49975586 43.11352539 C7.49975586 43.44352539 7.49975586 43.77352539 7.49975586 44.11352539 C9.80975586 44.11352539 12.11975586 44.11352539 14.49975586 44.11352539 C14.49975586 43.78352539 14.49975586 43.45352539 14.49975586 43.11352539 C12.18975586 43.11352539 9.87975586 43.11352539 7.49975586 43.11352539 Z " fill="#DB202C" transform="translate(220.500244140625,9.886474609375)"/>
<path d="M0 0 C1.39456452 0.00667256 2.78911118 0.01863093 4.18359375 0.03515625 C4.89451172 0.03966797 5.60542969 0.04417969 6.33789062 0.04882812 C8.09899388 0.06064761 9.86005411 0.07858362 11.62109375 0.09765625 C13.59022007 5.34380971 14.48572921 10.56188808 15.34765625 16.0703125 C15.50019867 17.02981308 15.65274109 17.98931366 15.80990601 18.97789001 C16.13022567 21.00558364 16.44776402 23.03371835 16.76269531 25.06225586 C17.24097356 28.12734308 17.73523847 31.18956548 18.23046875 34.25195312 C19.8153268 44.26704396 21.21318478 53.93099039 20.62109375 64.09765625 C17.32109375 63.76765625 14.02109375 63.43765625 10.62109375 63.09765625 C9.19850563 59.27445068 8.38067099 56.1848432 8.62109375 52.09765625 C6.70296875 52.12859375 6.70296875 52.12859375 4.74609375 52.16015625 C0.87109375 52.22265625 0.87109375 52.22265625 -1.37890625 51.09765625 C-1.70890625 54.39765625 -2.03890625 57.69765625 -2.37890625 61.09765625 C-8.31890625 61.59265625 -8.31890625 61.59265625 -14.37890625 62.09765625 C-8.56880702 24.85887895 -8.56880702 24.85887895 -6.06640625 10.28515625 C-5.9075293 9.34534912 -5.74865234 8.40554199 -5.58496094 7.43725586 C-4.30903866 0.12453869 -4.30903866 0.12453869 0 0 Z M2.62109375 18.09765625 C2.48832031 19.33902344 2.35554688 20.58039062 2.21875 21.859375 C2.04048224 23.50131486 1.86209029 25.14324124 1.68359375 26.78515625 C1.59658203 27.60177734 1.50957031 28.41839844 1.41992188 29.25976562 C0.98350647 33.25215844 0.50806999 37.17418477 -0.37890625 41.09765625 C2.26109375 41.42765625 4.90109375 41.75765625 7.62109375 42.09765625 C4.80599382 39.82030615 4.80599382 39.82030615 1.62109375 40.09765625 C2.94109375 40.09765625 4.26109375 40.09765625 5.62109375 40.09765625 C6.51616192 37.12779073 6.65424544 34.84125837 6.28125 31.76953125 C6.18779297 30.9703125 6.09433594 30.17109375 5.99804688 29.34765625 C5.89427734 28.52265625 5.79050781 27.69765625 5.68359375 26.84765625 C5.58369141 26.0071875 5.48378906 25.16671875 5.38085938 24.30078125 C5.13405117 22.23229348 4.87843091 20.16486053 4.62109375 18.09765625 C3.96109375 18.09765625 3.30109375 18.09765625 2.62109375 18.09765625 Z " fill="#DB202C" transform="translate(415.37890625,9.90234375)"/>
<path d="M0 0 C1.37478516 0.01740234 1.37478516 0.01740234 2.77734375 0.03515625 C3.69644531 0.04417969 4.61554688 0.05320312 5.5625 0.0625 C6.27277344 0.07410156 6.98304688 0.08570313 7.71484375 0.09765625 C8.04484375 1.08765625 8.37484375 2.07765625 8.71484375 3.09765625 C9.37484375 2.43765625 10.03484375 1.77765625 10.71484375 1.09765625 C10.71484375 7.69765625 10.71484375 14.29765625 10.71484375 21.09765625 C12.03484375 21.09765625 13.35484375 21.09765625 14.71484375 21.09765625 C14.71484375 14.49765625 14.71484375 7.89765625 14.71484375 1.09765625 C15.04484375 1.09765625 15.37484375 1.09765625 15.71484375 1.09765625 C15.70960693 1.72857178 15.70437012 2.3594873 15.69897461 3.00952148 C15.67826549 5.85138972 15.66520309 8.69324213 15.65234375 11.53515625 C15.64396484 12.52837891 15.63558594 13.52160156 15.62695312 14.54492188 C15.62373047 15.48916016 15.62050781 16.43339844 15.6171875 17.40625 C15.61195068 18.28079834 15.60671387 19.15534668 15.60131836 20.05639648 C15.48699566 22.09205831 15.48699566 22.09205831 16.71484375 23.09765625 C16.70698853 22.10584351 16.70698853 22.10584351 16.69897461 21.09399414 C16.67826719 18.11605774 16.66520363 15.13813643 16.65234375 12.16015625 C16.64396484 11.11923828 16.63558594 10.07832031 16.62695312 9.00585938 C16.62211914 7.52182617 16.62211914 7.52182617 16.6171875 6.0078125 C16.60933228 4.63314819 16.60933228 4.63314819 16.60131836 3.23071289 C16.71484375 1.09765625 16.71484375 1.09765625 17.71484375 0.09765625 C19.40093341 0.02560114 21.08985034 0.01379557 22.77734375 0.03515625 C23.69644531 0.04417969 24.61554688 0.05320312 25.5625 0.0625 C26.27277344 0.07410156 26.98304688 0.08570313 27.71484375 0.09765625 C28.69950628 3.05164383 28.83612211 4.95014647 28.82836914 8.02807617 C28.82829361 9.02888718 28.82821808 10.02969818 28.82814026 11.06083679 C28.82297897 12.1390419 28.81781769 13.21724701 28.8125 14.328125 C28.81108505 15.4336824 28.8096701 16.53923981 28.80821228 17.67829895 C28.80260889 21.21394542 28.79005579 24.74952887 28.77734375 28.28515625 C28.77232919 30.68033763 28.76776621 33.07552 28.76367188 35.47070312 C28.75263835 41.3463785 28.73537142 47.22200668 28.71484375 53.09765625 C24.75484375 53.09765625 20.79484375 53.09765625 16.71484375 53.09765625 C16.71484375 46.16765625 16.71484375 39.23765625 16.71484375 32.09765625 C14.07484375 32.09765625 11.43484375 32.09765625 8.71484375 32.09765625 C8.72008057 32.72857178 8.72531738 33.3594873 8.73071289 34.00952148 C8.75142201 36.85138972 8.76448441 39.69324213 8.77734375 42.53515625 C8.78572266 43.52837891 8.79410156 44.52160156 8.80273438 45.54492188 C8.80595703 46.48916016 8.80917969 47.43339844 8.8125 48.40625 C8.81773682 49.28079834 8.82297363 50.15534668 8.82836914 51.05639648 C8.71484375 53.09765625 8.71484375 53.09765625 7.71484375 54.09765625 C6.02875409 54.16971136 4.33983716 54.18151693 2.65234375 54.16015625 C1.73324219 54.15113281 0.81414062 54.14210937 -0.1328125 54.1328125 C-0.84308594 54.12121094 -1.55335938 54.10960937 -2.28515625 54.09765625 C-3.26627142 51.15431073 -3.41177362 49.24990269 -3.41455078 46.18310547 C-3.41927902 44.6867305 -3.41927902 44.6867305 -3.42410278 43.16012573 C-3.42207855 42.08505768 -3.42005432 41.00998962 -3.41796875 39.90234375 C-3.41892548 38.79915802 -3.4198822 37.69597229 -3.42086792 36.55935669 C-3.42154859 34.22755883 -3.41970216 31.89575907 -3.41552734 29.56396484 C-3.41016738 25.98010036 -3.4154814 22.39636063 -3.421875 18.8125 C-3.4212144 16.55078097 -3.41993361 14.28906202 -3.41796875 12.02734375 C-3.41999298 10.94822723 -3.42201721 9.86911072 -3.42410278 8.7572937 C-3.42095062 7.76601471 -3.41779846 6.77473572 -3.41455078 5.75341797 C-3.41375519 4.87644257 -3.41295959 3.99946716 -3.41213989 3.09591675 C-3.22847103 0.2056371 -2.89899105 0.12388851 0 0 Z " fill="#DB202C" transform="translate(170.28515625,9.90234375)"/>
<path d="M0 0 C2.62697064 -0.22137393 5.00893964 -0.28162025 7.625 -0.1875 C8.33140625 -0.17396484 9.0378125 -0.16042969 9.765625 -0.14648438 C11.51074128 -0.1111104 13.25546608 -0.05730221 15 0 C19.07599933 18.86947926 21.98343945 37.93944806 25 57 C22.15105645 57.75397865 19.70234746 58.11170579 16.75 58.0625 C14.89375 58.0315625 14.89375 58.0315625 13 58 C12.34 55.03 11.68 52.06 11 49 C6.545 49.495 6.545 49.495 2 50 C1.34 52.97 0.68 55.94 0 59 C-4.95 59.495 -4.95 59.495 -10 60 C-11.35649222 57.28701556 -10.80294572 55.75900938 -10.3190918 52.77172852 C-10.14528488 51.6804213 -9.97147797 50.58911407 -9.79240417 49.46473694 C-9.59665298 48.28141281 -9.40090179 47.09808868 -9.19921875 45.87890625 C-9.00278275 44.6680687 -8.80634674 43.45723114 -8.60395813 42.20970154 C-8.07861198 38.98617591 -7.54685486 35.76378085 -7.01318359 32.54162598 C-6.47449833 29.26812367 -5.95082172 25.99219848 -5.42382812 22.71679688 C-5.01651394 20.22902096 -4.60833938 17.74138573 -4.19921875 15.25390625 C-3.914701 13.48195641 -3.914701 13.48195641 -3.62443542 11.67420959 C-3.44117203 10.57975021 -3.25790863 9.48529083 -3.0690918 8.35766602 C-2.91063278 7.39329117 -2.75217377 6.42891632 -2.58891296 5.43531799 C-2 3 -2 3 0 0 Z M6 18 C5.66089006 20.04071515 5.32897296 22.08262621 5 24.125 C4.814375 25.26195312 4.62875 26.39890625 4.4375 27.5703125 C4.03043951 30.76137602 3.92190098 33.78817791 4 37 C5.65 37 7.3 37 9 37 C8.50873071 30.63440427 8.00344253 24.30735307 7 18 C6.67 18 6.34 18 6 18 Z M3 38 C3 38.33 3 38.66 3 39 C5.31 39 7.62 39 10 39 C10 38.67 10 38.34 10 38 C7.69 38 5.38 38 3 38 Z " fill="#DB202C" transform="translate(64,10)"/>
<path d="M0 0 C1.51400391 0.01740234 1.51400391 0.01740234 3.05859375 0.03515625 C4.07050781 0.04417969 5.08242188 0.05320312 6.125 0.0625 C7.29869141 0.07990234 7.29869141 0.07990234 8.49609375 0.09765625 C10.9753222 11.7025554 12.81491014 23.35321758 14.49609375 35.09765625 C14.93622666 32.8064679 15.37378757 30.5148584 15.80859375 28.22265625 C15.94249512 27.51681396 16.07639648 26.81097168 16.21435547 26.08374023 C17.41757533 19.66539765 18.4859256 13.22773143 19.4934082 6.77587891 C20.38806788 1.20568212 20.38806788 1.20568212 21.49609375 0.09765625 C23.18218341 0.02560114 24.87110034 0.01379557 26.55859375 0.03515625 C27.47769531 0.04417969 28.39679688 0.05320312 29.34375 0.0625 C30.05402344 0.07410156 30.76429688 0.08570313 31.49609375 0.09765625 C32.85406994 2.81360862 32.29276276 4.3371834 31.79931641 7.32592773 C31.6222818 8.41723495 31.44524719 9.50854218 31.2628479 10.63291931 C31.06395966 11.81624344 30.86507141 12.99956757 30.66015625 14.21875 C30.36194473 16.03500633 30.36194473 16.03500633 30.05770874 17.88795471 C29.52685097 21.1114536 28.99013452 24.33390955 28.45098877 27.55603027 C27.9052635 30.82997802 27.36947296 34.10554191 26.83203125 37.38085938 C26.42113092 39.86858181 26.00969055 42.35621513 25.59765625 44.84375 C25.30539658 46.61569984 25.30539658 46.61569984 25.00723267 48.42344666 C24.82389374 49.51790604 24.64055481 50.61236542 24.45166016 51.73999023 C24.21064072 53.18655251 24.21064072 53.18655251 23.9647522 54.66233826 C23.49609375 57.09765625 23.49609375 57.09765625 22.49609375 60.09765625 C17.21609375 59.76765625 11.93609375 59.43765625 6.49609375 59.09765625 C5.26023497 54.77215053 4.20923769 50.99225249 3.51879883 46.63720703 C3.35555618 45.61990509 3.19231354 44.60260315 3.02412415 43.55447388 C2.77241707 41.94002884 2.77241707 41.94002884 2.515625 40.29296875 C2.33851486 39.17324677 2.16140472 38.05352478 1.97892761 36.89987183 C1.60785049 34.54524814 1.23902169 32.19026914 0.87231445 29.83496094 C0.30708343 26.21297814 -0.26890013 22.59281209 -0.84570312 18.97265625 C-1.20507571 16.68369549 -1.563822 14.3946363 -1.921875 12.10546875 C-2.18269112 10.47280563 -2.18269112 10.47280563 -2.44877625 8.80715942 C-2.60256241 7.80877045 -2.75634857 6.81038147 -2.91479492 5.78173828 C-3.12225594 4.45772507 -3.12225594 4.45772507 -3.33390808 3.10696411 C-3.39000748 2.44389252 -3.44610687 1.78082092 -3.50390625 1.09765625 C-2.50390625 0.09765625 -2.50390625 0.09765625 0 0 Z " fill="#DB202C" transform="translate(372.50390625,9.90234375)"/>
<path d="M0 0 C0.85078125 0.00322266 1.7015625 0.00644531 2.578125 0.00976562 C3.46757812 0.01814453 4.35703125 0.02652344 5.2734375 0.03515625 C6.170625 0.03966797 7.0678125 0.04417969 7.9921875 0.04882812 C10.21100398 0.06063034 12.42968768 0.0770947 14.6484375 0.09765625 C15.10863281 1.27521484 15.10863281 1.27521484 15.578125 2.4765625 C16.55265914 5.0352852 16.55265914 5.0352852 17.7734375 7.03515625 C18.94967859 9.80772453 18.84695593 12.11987986 18.6484375 15.09765625 C17.6484375 16.09765625 17.6484375 16.09765625 15.36328125 16.1953125 C13.98849609 16.17791016 13.98849609 16.17791016 12.5859375 16.16015625 C11.66683594 16.15113281 10.74773437 16.14210938 9.80078125 16.1328125 C9.09050781 16.12121094 8.38023437 16.10960938 7.6484375 16.09765625 C6.9884375 13.78765625 6.3284375 11.47765625 5.6484375 9.09765625 C3.9984375 9.09765625 2.3484375 9.09765625 0.6484375 9.09765625 C0.13741183 14.46342582 1.25981152 16.94658942 4.6484375 21.09765625 C6.63864428 22.93288791 8.68111978 24.68773572 10.75 26.43359375 C14.77296977 29.95990059 18.21758974 34.06168252 18.984375 39.46484375 C19.07358793 45.19231358 18.65122926 48.66213024 14.6484375 53.09765625 C10.701722 56.68557943 6.48244247 56.60065235 1.375 56.44921875 C-3.68171923 55.79720624 -6.87411966 53.82133957 -10.2265625 49.91015625 C-11.76191519 46.07177452 -12.31740318 42.23093359 -12.3515625 38.09765625 C-11.3515625 37.09765625 -11.3515625 37.09765625 -9.1015625 36.96484375 C-8.1940625 36.96742187 -7.2865625 36.97 -6.3515625 36.97265625 C-4.9903125 36.96878906 -4.9903125 36.96878906 -3.6015625 36.96484375 C-1.3515625 37.09765625 -1.3515625 37.09765625 -0.3515625 38.09765625 C0.01604481 40.42583589 0.35085331 42.75949475 0.6484375 45.09765625 C1.9684375 45.42765625 3.2884375 45.75765625 4.6484375 46.09765625 C5.99161441 44.5045244 5.99161441 44.5045244 6.6484375 42.09765625 C5.14294893 35.25452637 0.36241917 31.9873174 -4.7421875 27.50390625 C-9.40535283 23.20374181 -11.50657001 19.53991846 -11.9140625 13.09765625 C-11.70917704 7.72965732 -9.88746185 5.054496 -6.3515625 1.09765625 C-4.00303722 -0.07660639 -2.61382185 -0.01742548 0 0 Z " fill="#DB202C" transform="translate(307.3515625,9.90234375)"/>
<path d="M0 0 C1.16781006 0.00523682 2.33562012 0.01047363 3.53881836 0.01586914 C4.79887695 0.0190918 6.05893555 0.02231445 7.35717773 0.02563477 C8.6976732 0.03399136 10.03816799 0.04245632 11.37866211 0.05102539 C12.72306153 0.05603879 14.06746271 0.06060197 15.41186523 0.06469727 C18.71334151 0.07653051 22.01473014 0.09301568 25.31616211 0.11352539 C24.98616211 3.74352539 24.65616211 7.37352539 24.31616211 11.11352539 C19.69616211 11.11352539 15.07616211 11.11352539 10.31616211 11.11352539 C10.31616211 14.08352539 10.31616211 17.05352539 10.31616211 20.11352539 C13.94616211 20.11352539 17.57616211 20.11352539 21.31616211 20.11352539 C21.31616211 21.10352539 21.31616211 22.09352539 21.31616211 23.11352539 C21.33678711 24.30977539 21.35741211 25.50602539 21.37866211 26.73852539 C21.31616211 30.11352539 21.31616211 30.11352539 20.31616211 31.11352539 C18.30021629 31.34780317 16.27768811 31.52688663 14.25366211 31.67602539 C12.59657227 31.80170898 12.59657227 31.80170898 10.90600586 31.92993164 C10.05135742 31.99051758 9.19670898 32.05110352 8.31616211 32.11352539 C8.31616211 35.74352539 8.31616211 39.37352539 8.31616211 43.11352539 C13.59616211 43.77352539 18.87616211 44.43352539 24.31616211 45.11352539 C24.31616211 48.08352539 24.31616211 51.05352539 24.31616211 54.11352539 C17.47793573 54.23008607 10.69973735 54.06635971 3.87866211 53.60961914 C3.14711914 53.56220581 2.41557617 53.51479248 1.66186523 53.46594238 C-0.12014893 53.35019882 -1.90201045 53.23210889 -3.68383789 53.11352539 C-3.70910482 45.72624437 -3.72666949 38.33897441 -3.73876953 30.95166016 C-3.74381152 28.43635644 -3.75064492 25.92105567 -3.75927734 23.40576172 C-3.77134883 19.79922764 -3.77706738 16.19273217 -3.78149414 12.58618164 C-3.78665543 11.4539064 -3.79181671 10.32163116 -3.7971344 9.15504456 C-3.79720993 8.11404099 -3.79728546 7.07303741 -3.79736328 6.00048828 C-3.79958389 5.07893448 -3.8018045 4.15738068 -3.80409241 3.207901 C-3.62123024 0.02313867 -3.21946162 0.13618208 0 0 Z M8.31616211 11.11352539 C8.31616211 14.08352539 8.31616211 17.05352539 8.31616211 20.11352539 C8.64616211 20.11352539 8.97616211 20.11352539 9.31616211 20.11352539 C9.31616211 17.14352539 9.31616211 14.17352539 9.31616211 11.11352539 C8.98616211 11.11352539 8.65616211 11.11352539 8.31616211 11.11352539 Z " fill="#DB202C" transform="translate(255.683837890625,9.886474609375)"/>
<path d="M0 0 C1.25159912 0.00523682 2.50319824 0.01047363 3.79272461 0.01586914 C4.78942421 0.01799156 4.78942421 0.01799156 5.80625916 0.02015686 C7.93590735 0.02577021 10.06545175 0.03832485 12.19506836 0.05102539 C13.63582205 0.05603868 15.07657739 0.06060188 16.51733398 0.06469727 C20.05577938 0.07574394 23.59416375 0.09301747 27.13256836 0.11352539 C29.26127458 6.49964404 29.26710607 12.66831201 29.23022461 19.32446289 C29.22880966 20.29259918 29.22739471 21.26073547 29.22593689 22.25820923 C29.22036201 25.33501338 29.20781413 28.41174342 29.19506836 31.48852539 C29.19005011 33.58097225 29.18548777 35.67342026 29.18139648 37.76586914 C29.17040081 42.8817829 29.15315351 47.9976416 29.13256836 53.11352539 C28.80256836 53.11352539 28.47256836 53.11352539 28.13256836 53.11352539 C28.13256836 39.25352539 28.13256836 25.39352539 28.13256836 11.11352539 C25.49256836 11.11352539 22.85256836 11.11352539 20.13256836 11.11352539 C20.14304199 12.34506348 20.15351563 13.57660156 20.16430664 14.84545898 C20.20043925 19.40386054 20.22344421 23.96224937 20.24243164 28.52075195 C20.25250463 30.49570848 20.26616357 32.47065005 20.28344727 34.44555664 C20.30763875 37.28022957 20.31903827 40.11470577 20.32788086 42.94946289 C20.33820343 43.83596527 20.348526 44.72246765 20.35916138 45.63583374 C20.35955906 47.79638491 20.2552937 49.95646257 20.13256836 52.11352539 C17.54330505 54.7027887 16.10551557 54.48750582 12.50756836 54.73852539 C11.50467773 54.81329102 10.50178711 54.88805664 9.46850586 54.96508789 C8.69764648 55.01407227 7.92678711 55.06305664 7.13256836 55.11352539 C6.00924451 50.61744119 5.98776639 46.20543549 5.99975586 41.60180664 C5.99879913 40.79237106 5.99784241 39.98293549 5.99685669 39.14897156 C5.99617844 37.44534222 5.99800789 35.74171026 6.00219727 34.03808594 C6.00757149 31.42450209 6.00222958 28.81108845 5.99584961 26.19750977 C5.99651004 24.54060834 5.99779049 22.88370703 5.99975586 21.22680664 C5.99773163 20.44348465 5.9957074 19.66016266 5.99362183 18.85310364 C6.01759389 13.34347434 6.01759389 13.34347434 7.13256836 11.11352539 C6.47256836 11.11352539 5.81256836 11.11352539 5.13256836 11.11352539 C5.13256836 25.30352539 5.13256836 39.49352539 5.13256836 54.11352539 C4.80256836 54.11352539 4.47256836 54.11352539 4.13256836 54.11352539 C4.13256836 39.92352539 4.13256836 25.73352539 4.13256836 11.11352539 C1.82256836 11.11352539 -0.48743164 11.11352539 -2.86743164 11.11352539 C-2.86743164 25.63352539 -2.86743164 40.15352539 -2.86743164 55.11352539 C-3.19743164 55.11352539 -3.52743164 55.11352539 -3.86743164 55.11352539 C-3.86743164 39.11352539 -3.86743164 23.11352539 -3.86743164 7.11352539 C-3.88805664 6.08227539 -3.90868164 5.05102539 -3.92993164 3.98852539 C-3.84653521 0.15228939 -3.84653521 0.15228939 0 0 Z M18.13256836 9.11352539 C18.13256836 9.44352539 18.13256836 9.77352539 18.13256836 10.11352539 C21.43256836 10.11352539 24.73256836 10.11352539 28.13256836 10.11352539 C28.13256836 9.78352539 28.13256836 9.45352539 28.13256836 9.11352539 C24.83256836 9.11352539 21.53256836 9.11352539 18.13256836 9.11352539 Z " fill="#DB202C" transform="translate(136.867431640625,9.886474609375)"/>
<path d="M0 0 C3.96 0 7.92 0 12 0 C12.91382467 4.56912336 13.11566605 8.70022728 13.0625 13.3125 C13.041875 15.849375 13.02125 18.38625 13 21 C13.33 14.4 13.66 7.8 14 1 C14.33 1 14.66 1 15 1 C15 15.52 15 30.04 15 45 C16.98 45 18.96 45 21 45 C21.66 45.33 22.32 45.66 23 46 C24.66194453 46.35613097 26.328451 46.69208308 28 47 C28.09765625 53.15234375 28.09765625 53.15234375 28 55 C21.61860343 61.38139657 10.01798993 56.65315423 1 57 C0.67 38.19 0.34 19.38 0 0 Z " fill="#DB202C" transform="translate(90,10)"/>
<path d="M0 0 C3.63 0 7.26 0 11 0 C11 15.18 11 30.36 11 46 C15.95 46 20.9 46 26 46 C26.96070434 48.88211302 27.10581883 50.69850044 27.0625 53.6875 C27.05347656 54.49574219 27.04445313 55.30398437 27.03515625 56.13671875 C27.02355469 56.75160156 27.01195312 57.36648437 27 58 C20.25827945 58.11298973 13.54334173 58.00672504 6.8125 57.625 C5.54019531 57.55539063 4.26789063 57.48578125 2.95703125 57.4140625 C1.98121094 57.27742188 1.00539063 57.14078125 0 57 C-1.27131344 54.45737313 -1.1270156 52.67794199 -1.12939453 49.83178711 C-1.13254669 48.75404526 -1.13569885 47.67630341 -1.13894653 46.56590271 C-1.1369223 45.39817825 -1.13489807 44.2304538 -1.1328125 43.02734375 C-1.13376923 41.83395889 -1.13472595 40.64057404 -1.13571167 39.411026 C-1.1363931 36.88493802 -1.1345414 34.3588483 -1.13037109 31.83276367 C-1.12501767 27.95031839 -1.1303198 24.06798856 -1.13671875 20.18554688 C-1.13605805 17.73697891 -1.13477707 15.28841102 -1.1328125 12.83984375 C-1.13483673 11.67009506 -1.13686096 10.50034637 -1.13894653 9.29515076 C-1.13579437 8.22056107 -1.13264221 7.14597137 -1.12939453 6.03881836 C-1.12859894 5.08776718 -1.12780334 4.136716 -1.12698364 3.15684509 C-1 1 -1 1 0 0 Z " fill="#DB202C" transform="translate(346,10)"/>
<path d="M0 0 C1.37478516 0.01740234 1.37478516 0.01740234 2.77734375 0.03515625 C3.69644531 0.04417969 4.61554688 0.05320312 5.5625 0.0625 C6.27277344 0.07410156 6.98304688 0.08570313 7.71484375 0.09765625 C8.72435772 3.12619815 8.83588875 5.13770967 8.82836914 8.3034668 C8.82829361 9.36434006 8.82821808 10.42521332 8.82814026 11.51823425 C8.82297897 12.6620607 8.81781769 13.80588715 8.8125 14.984375 C8.81108505 16.15652054 8.8096701 17.32866608 8.80821228 18.53633118 C8.80260763 22.28596532 8.79005431 26.0355401 8.77734375 29.78515625 C8.77232935 32.32486893 8.76776634 34.86458255 8.76367188 37.40429688 C8.75263669 43.6354396 8.7353689 49.86653785 8.71484375 56.09765625 C5.08484375 56.09765625 1.45484375 56.09765625 -2.28515625 56.09765625 C-3.28294403 53.1042929 -3.41183022 51.12529391 -3.41455078 47.99951172 C-3.41770294 46.9618869 -3.4208551 45.92426208 -3.42410278 44.85519409 C-3.42207855 43.73637848 -3.42005432 42.61756287 -3.41796875 41.46484375 C-3.41892548 40.31726593 -3.4198822 39.16968811 -3.42086792 37.98733521 C-3.42154867 35.56138046 -3.41970171 33.1354239 -3.41552734 30.70947266 C-3.41016789 26.98075306 -3.41548095 23.25215339 -3.421875 19.5234375 C-3.42121439 17.17057265 -3.41993359 14.81770787 -3.41796875 12.46484375 C-3.41999298 11.34197968 -3.42201721 10.2191156 -3.42410278 9.06222534 C-3.42095062 8.03090485 -3.41779846 6.99958435 -3.41455078 5.93701172 C-3.41375519 5.02450653 -3.41295959 4.11200134 -3.41213989 3.17184448 C-3.23202495 0.22979391 -2.95123544 0.12612117 0 0 Z " fill="#DB202C" transform="translate(332.28515625,9.90234375)"/>
<path d="M0 0 C1.37478516 0.01740234 1.37478516 0.01740234 2.77734375 0.03515625 C3.69644531 0.04417969 4.61554688 0.05320312 5.5625 0.0625 C6.27277344 0.07410156 6.98304688 0.08570313 7.71484375 0.09765625 C8.71606546 3.10132139 8.83596386 5.07505218 8.82836914 8.21166992 C8.82829361 9.25252243 8.82821808 10.29337494 8.82814026 11.36576843 C8.82297897 12.4877211 8.81781769 13.60967377 8.8125 14.765625 C8.81108505 15.91557449 8.8096701 17.06552399 8.80821228 18.25032043 C8.80260804 21.92862533 8.79005479 25.6068697 8.77734375 29.28515625 C8.7723293 31.77669183 8.7677663 34.26822836 8.76367188 36.75976562 C8.75263722 42.87241654 8.73589493 48.98503207 8.71484375 55.09765625 C6.9030297 55.29167258 5.09035843 55.4777 3.27734375 55.66015625 C1.76333984 55.81677734 1.76333984 55.81677734 0.21875 55.9765625 C-0.60753906 56.01652344 -1.43382813 56.05648437 -2.28515625 56.09765625 C-3.96527967 54.41753283 -3.41262964 52.34678433 -3.41455078 50.04296875 C-3.41770294 48.96515137 -3.4208551 47.88733398 -3.42410278 46.77685547 C-3.42207855 45.60396973 -3.42005432 44.43108398 -3.41796875 43.22265625 C-3.41892548 42.02785645 -3.4198822 40.83305664 -3.42086792 39.60205078 C-3.42154996 37.06998645 -3.41969403 34.53792037 -3.41552734 32.00585938 C-3.41017946 28.11454365 -3.41547158 24.22334336 -3.421875 20.33203125 C-3.42121422 17.87890599 -3.41993307 15.42578081 -3.41796875 12.97265625 C-3.41999298 11.79977051 -3.42201721 10.62688477 -3.42410278 9.41845703 C-3.42095062 8.34063965 -3.41779846 7.26282227 -3.41455078 6.15234375 C-3.41375519 5.19827637 -3.41295959 4.24420898 -3.41213989 3.26123047 C-3.23590036 0.25842397 -3.01095708 0.12867338 0 0 Z " fill="#DB202C" transform="translate(123.28515625,9.90234375)"/>
<path d="M0 0 C0.66 0 1.32 0 2 0 C2 18.15 2 36.3 2 55 C1.34 55 0.68 55 0 55 C0 36.85 0 18.7 0 0 Z " fill="#DB202C" transform="translate(342,11)"/>
<path d="M0 0 C0.33 0 0.66 0 1 0 C1 17.82 1 35.64 1 54 C0.34 53.01 -0.32 52.02 -1 51 C-1.99 51.495 -1.99 51.495 -3 52 C-2.67128906 51.13117187 -2.34257812 50.26234375 -2.00390625 49.3671875 C-1.00419808 46.01408071 -0.82474664 43.59780341 -0.9375 40.125 C-1.07184471 32.3777885 -0.55509349 24.72174696 0 17 C-4.29 17 -8.58 17 -13 17 C-13 16.01 -13 15.02 -13 14 C-12.67 14.33 -12.34 14.66 -12 15 C-10.14712498 15.07226502 -8.29166122 15.0838122 -6.4375 15.0625 C-5.42558594 15.05347656 -4.41367187 15.04445313 -3.37109375 15.03515625 C-2.58863281 15.02355469 -1.80617188 15.01195312 -1 15 C-1.01160156 14.33613281 -1.02320313 13.67226563 -1.03515625 12.98828125 C-1.12478032 4.21792619 -1.12478032 4.21792619 0 0 Z " fill="#DB202C" transform="translate(327,11)"/>
<path d="M0 0 C0.33 0 0.66 0 1 0 C1 17.16 1 34.32 1 52 C0.67 52 0.34 52 0 52 C-0.93575468 43.12098838 -1.15637882 34.2977772 -1.13037109 25.38012695 C-1.12496515 23.17327137 -1.13037512 20.96661544 -1.13671875 18.75976562 C-1.13605856 17.33333289 -1.13477864 15.90690028 -1.1328125 14.48046875 C-1.13168457 13.21098389 -1.13055664 11.94149902 -1.12939453 10.63354492 C-1.00081411 7.02286126 -0.57788404 3.56400083 0 0 Z " fill="#DB202C" transform="translate(250,11)"/>
<path d="M0 0 C0.33 0 0.66 0 1 0 C1 17.49 1 34.98 1 53 C0.67 53 0.34 53 0 53 C-1.38253162 41.91091429 -0.90009908 30.88980782 -0.5625 19.75 C-0.50916022 17.8294438 -0.45642109 15.90887082 -0.40429688 13.98828125 C-0.27645349 9.32529855 -0.1404902 4.6626181 0 0 Z " fill="#DB202C" transform="translate(89,11)"/>
<path d="M0 0 C0.33 0 0.66 0 1 0 C1 15.18 1 30.36 1 46 C0.67 45.34 0.34 44.68 0 44 C-2.31 44 -4.62 44 -7 44 C-7 43.67 -7 43.34 -7 43 C-4.69 43 -2.38 43 0 43 C0 28.81 0 14.62 0 0 Z " fill="#DB202C" transform="translate(118,11)"/>
<path d="M0 0 C0.33 0 0.66 0 1 0 C1 17.16 1 34.32 1 52 C0.67 52 0.34 52 0 52 C0 34.84 0 17.68 0 0 Z " fill="#DB202C" transform="translate(215,11)"/>
<path d="M0 0 C0.33 0 0.66 0 1 0 C1 17.16 1 34.32 1 52 C0.67 52 0.34 52 0 52 C0 34.84 0 17.68 0 0 Z " fill="#DB202C" transform="translate(200,11)"/>
<path d="M0 0 C0 6.93 0 13.86 0 21 C-0.33 21 -0.66 21 -1 21 C-1 14.73 -1 8.46 -1 2 C-2.32 2 -3.64 2 -5 2 C-5 8.27 -5 14.54 -5 21 C-5.33 21 -5.66 21 -6 21 C-6 14.4 -6 7.8 -6 1 C-1 0 -1 0 0 0 Z " fill="#DB202C" transform="translate(186,42)"/>
<path d="M0 0 C3.96 0 7.92 0 12 0 C12 0.33 12 0.66 12 1 C8.37 1 4.74 1 1 1 C1 3.97 1 6.94 1 10 C2.7634375 9.9690625 2.7634375 9.9690625 4.5625 9.9375 C8.47413467 9.93052739 12.14497944 10.35749657 16 11 C15.67 11.66 15.34 12.32 15 13 C7.575 12.01 7.575 12.01 0 11 C0 7.37 0 3.74 0 0 Z " fill="#DB202C" transform="translate(265,42)"/>
<path d="M0 0 C0 0.33 0 0.66 0 1 C-9.02417777 1.69037426 -17.94361322 2.15178302 -27 2 C-27 1.67 -27 1.34 -27 1 C-17.98175113 -0.06996173 -9.06335876 -0.10234659 0 0 Z " fill="#DB202C" transform="translate(118,67)"/>
<path d="M0 0 C0.33 0 0.66 0 1 0 C0.67 4.29 0.34 8.58 0 13 C-0.33 13 -0.66 13 -1 13 C-1.02686553 11.02090602 -1.04633375 9.04171029 -1.0625 7.0625 C-1.07410156 5.96035156 -1.08570313 4.85820313 -1.09765625 3.72265625 C-1 1 -1 1 0 0 Z " fill="#DB202C" transform="translate(53,54)"/>
<path d="M0 0 C0.33 0 0.66 0 1 0 C1.33 3.96 1.66 7.92 2 12 C1.34 12 0.68 12 0 12 C0 8.04 0 4.08 0 0 Z " fill="#DB202C" transform="translate(21,60)"/>
<path d="M0 0 C2.64 0.33 5.28 0.66 8 1 C8 2.65 8 4.3 8 6 C7.67 4.68 7.34 3.36 7 2 C5.02 2 3.04 2 1 2 C0.67 3.32 0.34 4.64 0 6 C0 4.02 0 2.04 0 0 Z " fill="#DB202C" transform="translate(415,62)"/>
<path d="M0 0 C-2.88415883 1.44207941 -5.41721528 1.09394887 -8.625 1.0625 C-9.81351562 1.05347656 -11.00203125 1.04445313 -12.2265625 1.03515625 C-13.14179688 1.02355469 -14.05703125 1.01195313 -15 1 C-15 0.67 -15 0.34 -15 0 C-13.06325815 -0.19517554 -11.12555991 -0.38087873 -9.1875 -0.5625 C-8.10855469 -0.66691406 -7.02960938 -0.77132812 -5.91796875 -0.87890625 C-3 -1 -3 -1 0 0 Z " fill="#DB202C" transform="translate(320,67)"/>
<path d="M0 0 C4.62 0 9.24 0 14 0 C14 0.66 14 1.32 14 2 C9.38 2 4.76 2 0 2 C0 1.34 0 0.68 0 0 Z " fill="#DB202C" transform="translate(186,63)"/>
<path d="M0 0 C0.33 0 0.66 0 1 0 C1 1.98 1 3.96 1 6 C1.99 6 2.98 6 4 6 C4 4.35 4 2.7 4 1 C4.33 1 4.66 1 5 1 C5 2.98 5 4.96 5 7 C3.35 7 1.7 7 0 7 C0 4.69 0 2.38 0 0 Z " fill="#DB202C" transform="translate(308,48)"/>
<path d="M0 0 C0.33 0.66 0.66 1.32 1 2 C-3.62 2 -8.24 2 -13 2 C-13 1.67 -13 1.34 -13 1 C-6.565 0.505 -6.565 0.505 0 0 Z " fill="#DB202C" transform="translate(373,68)"/>
<path d="M0 0 C4.95 0 9.9 0 15 0 C15 0.33 15 0.66 15 1 C10.05 1 5.1 1 0 1 C0 0.67 0 0.34 0 0 Z " fill="#DB202C" transform="translate(265,65)"/>
<path d="M0 0 C6.93 0.495 6.93 0.495 14 1 C14 1.33 14 1.66 14 2 C9.38 2 4.76 2 0 2 C0 1.34 0 0.68 0 0 Z " fill="#DB202C" transform="translate(251,63)"/>
<path d="M0 0 C0.33 0 0.66 0 1 0 C1 3.63 1 7.26 1 11 C0.34 11 -0.32 11 -1 11 C-0.67 7.37 -0.34 3.74 0 0 Z " fill="#DB202C" transform="translate(38,60)"/>
<path d="M0 0 C0.33 0 0.66 0 1 0 C0.67 3.96 0.34 7.92 0 12 C-0.33 12 -0.66 12 -1 12 C-1.02712066 10.56260487 -1.04645067 9.12506137 -1.0625 7.6875 C-1.07410156 6.88699219 -1.08570313 6.08648437 -1.09765625 5.26171875 C-1 3 -1 3 0 0 Z " fill="#DB202C" transform="translate(375,56)"/>
<path d="M0 0 C4.62 0 9.24 0 14 0 C14 0.33 14 0.66 14 1 C9.38 1 4.76 1 0 1 C0 0.67 0 0.34 0 0 Z " fill="#DB202C" transform="translate(346,68)"/>
<path d="M0 0 C0.33 0.66 0.66 1.32 1 2 C-3.29 2 -7.58 2 -12 2 C-12 1.67 -12 1.34 -12 1 C-6.06 0.505 -6.06 0.505 0 0 Z " fill="#DB202C" transform="translate(341,66)"/>
<path d="M0 0 C2.64 0 5.28 0 8 0 C8 1.98 8 3.96 8 6 C7.67 6 7.34 6 7 6 C7 4.35 7 2.7 7 1 C4.69 1.33 2.38 1.66 0 2 C0 1.34 0 0.68 0 0 Z " fill="#DB202C" transform="translate(67,60)"/>
<path d="M0 0 C2.32590854 3.63423209 2.16265833 6.77088331 2 11 C-0.32590854 7.36576791 -0.16265833 4.22911669 0 0 Z " fill="#DB202C" transform="translate(386,31)"/>
<path d="M0 0 C3.96 0.33 7.92 0.66 12 1 C12 1.33 12 1.66 12 2 C8.04 2 4.08 2 0 2 C0 1.34 0 0.68 0 0 Z " fill="#DB202C" transform="translate(23,72)"/>
<path d="M0 0 C0.99 0.495 0.99 0.495 2 1 C2 2.98 2 4.96 2 7 C1.34 7 0.68 7 0 7 C0 4.69 0 2.38 0 0 Z " fill="#DB202C" transform="translate(418,40)"/>
<path d="M0 0 C2.67927341 4.01891012 2.15601248 6.24161923 2 11 C1.67 11 1.34 11 1 11 C0.67 7.37 0.34 3.74 0 0 Z " fill="#DB202C" transform="translate(29,28)"/>
<path d="M0 0 C-1 1 -1 1 -3.28515625 1.09765625 C-4.65994141 1.08025391 -4.65994141 1.08025391 -6.0625 1.0625 C-6.98160156 1.05347656 -7.90070313 1.04445313 -8.84765625 1.03515625 C-9.55792969 1.02355469 -10.26820313 1.01195313 -11 1 C-11 0.67 -11 0.34 -11 0 C-9.54263913 -0.19491452 -8.08405407 -0.38069358 -6.625 -0.5625 C-5.81289062 -0.66691406 -5.00078125 -0.77132812 -4.1640625 -0.87890625 C-2 -1 -2 -1 0 0 Z " fill="#DB202C" transform="translate(157,65)"/>
<path d="M0 0 C3.96 0 7.92 0 12 0 C12 0.33 12 0.66 12 1 C8.04 1 4.08 1 0 1 C0 0.67 0 0.34 0 0 Z " fill="#DB202C" transform="translate(295,45)"/>
<path d="M0 0 C3.36720387 1.39332574 4.9859524 2.9789286 7 6 C3.63279613 4.60667426 2.0140476 3.0210714 0 0 Z " fill="#DB202C" transform="translate(301,38)"/>
<path d="M0 0 C0.99 0.33 1.98 0.66 3 1 C2.67 1.66 2.34 2.32 2 3 C1.34 2.67 0.68 2.34 0 2 C0 3.65 0 5.3 0 7 C-0.33 7 -0.66 7 -1 7 C-1.04254356 5.00045254 -1.04080783 2.99958364 -1 1 C-0.67 0.67 -0.34 0.34 0 0 Z " fill="#DB202C" transform="translate(310,19)"/>
<path d="M0 0 C3.63 0 7.26 0 11 0 C11 0.33 11 0.66 11 1 C7.37 1 3.74 1 0 1 C0 0.67 0 0.34 0 0 Z " fill="#DB202C" transform="translate(167,65)"/>
<path d="M0 0 C3.3 0 6.6 0 10 0 C10 0.33 10 0.66 10 1 C6.7 1 3.4 1 0 1 C0 0.67 0 0.34 0 0 Z " fill="#DB202C" transform="translate(378,70)"/>
<path d="M0 0 C3.3 0 6.6 0 10 0 C10 0.33 10 0.66 10 1 C6.7 1 3.4 1 0 1 C0 0.67 0 0.34 0 0 Z " fill="#DB202C" transform="translate(122,66)"/>
<path d="M0 0 C3.16115776 1.36983503 3.9927092 1.9890638 6 5 C2.83884224 3.63016497 2.0072908 3.0109362 0 0 Z " fill="#DB202C" transform="translate(312,29)"/>
<path d="M0 0 C0.33 0 0.66 0 1 0 C1 3.3 1 6.6 1 10 C0.67 10 0.34 10 0 10 C0 6.7 0 3.4 0 0 Z " fill="#DB202C" transform="translate(294,18)"/>
<path d="M0 0 C2.97 0 5.94 0 9 0 C9 0.33 9 0.66 9 1 C6.03 1 3.06 1 0 1 C0 0.67 0 0.34 0 0 Z " fill="#DB202C" transform="translate(402,72)"/>
<path d="M0 0 C2.97 0 5.94 0 9 0 C9 0.33 9 0.66 9 1 C6.03 1 3.06 1 0 1 C0 0.67 0 0.34 0 0 Z " fill="#DB202C" transform="translate(77,69)"/>
<path d="M0 0 C-1 1 -1 1 -4.0625 1.0625 C-5.5165625 1.0315625 -5.5165625 1.0315625 -7 1 C-7 0.67 -7 0.34 -7 0 C-2.25 -1.125 -2.25 -1.125 0 0 Z " fill="#DB202C" transform="translate(53,71)"/>
<path d="M0 0 C0.33 0 0.66 0 1 0 C1 2.64 1 5.28 1 8 C0.67 8 0.34 8 0 8 C0 5.36 0 2.72 0 0 Z " fill="#DB202C" transform="translate(281,55)"/>
<path d="M0 0 C0.33 0 0.66 0 1 0 C1 2.64 1 5.28 1 8 C0.67 8 0.34 8 0 8 C0 5.36 0 2.72 0 0 Z " fill="#DB202C" transform="translate(281,11)"/>
<path d="M0 0 C2.31 0 4.62 0 7 0 C7 0.33 7 0.66 7 1 C4.69 1 2.38 1 0 1 C0 0.67 0 0.34 0 0 Z " fill="#DB202C" transform="translate(425,74)"/>
<path d="M0 0 C2.31 0 4.62 0 7 0 C7 0.33 7 0.66 7 1 C4.69 1 2.38 1 0 1 C0 0.67 0 0.34 0 0 Z " fill="#DB202C" transform="translate(388,71)"/>
<path d="M0 0 C2.31 0 4.62 0 7 0 C7 0.33 7 0.66 7 1 C4.69 1 2.38 1 0 1 C0 0.67 0 0.34 0 0 Z " fill="#DB202C" transform="translate(58,70)"/>
<path d="M0 0 C1.32 1.32 2.64 2.64 4 4 C2.68 3.34 1.36 2.68 0 2 C0 1.34 0 0.68 0 0 Z " fill="#DB202C" transform="translate(297,61)"/>
<path d="M0 0 C0.33 0 0.66 0 1 0 C1 2.31 1 4.62 1 7 C0.67 7 0.34 7 0 7 C0 4.69 0 2.38 0 0 Z " fill="#DB202C" transform="translate(398,55)"/>
<path d="M0 0 C0.33 0 0.66 0 1 0 C1 2.31 1 4.62 1 7 C0.67 7 0.34 7 0 7 C0 4.69 0 2.38 0 0 Z " fill="#DB202C" transform="translate(278,33)"/>
<path d="M0 0 C0.66 0.33 1.32 0.66 2 1 C0.68 1.99 -0.64 2.98 -2 4 C-1.34 2.68 -0.68 1.36 0 0 Z " fill="#DB202C" transform="translate(299,10)"/>
<path d="M0 0 C1.98 0 3.96 0 6 0 C6 0.33 6 0.66 6 1 C4.02 1 2.04 1 0 1 C0 0.67 0 0.34 0 0 Z " fill="#DB202C" transform="translate(14,74)"/>
<path d="M0 0 C1.98 0 3.96 0 6 0 C6 0.33 6 0.66 6 1 C4.02 1 2.04 1 0 1 C0 0.67 0 0.34 0 0 Z " fill="#DB202C" transform="translate(40,72)"/>
<path d="M0 0 C0.66 0.33 1.32 0.66 2 1 C0.35 1.33 -1.3 1.66 -3 2 C-2.01 1.34 -1.02 0.68 0 0 Z " fill="#DB202C" transform="translate(89,67)"/>
<path d="M0 0 C0.33 0 0.66 0 1 0 C1 1.98 1 3.96 1 6 C0.67 6 0.34 6 0 6 C0 4.02 0 2.04 0 0 Z " fill="#DB202C" transform="translate(400,64)"/>
<path d="M0 0 C0.33 0 0.66 0 1 0 C1 1.98 1 3.96 1 6 C0.67 6 0.34 6 0 6 C0 4.02 0 2.04 0 0 Z " fill="#DB202C" transform="translate(397,62)"/>
<path d="M0 0 C0.33 0 0.66 0 1 0 C1 1.98 1 3.96 1 6 C0.67 6 0.34 6 0 6 C0 4.02 0 2.04 0 0 Z " fill="#DB202C" transform="translate(376,62)"/>
<path d="M0 0 C0.66 0.33 1.32 0.66 2 1 C0.02 1.99 0.02 1.99 -2 3 C-1.34 2.01 -0.68 1.02 0 0 Z " fill="#DB202C" transform="translate(322,63)"/>
<path d="M0 0 C0.33 0 0.66 0 1 0 C1 1.98 1 3.96 1 6 C0.67 6 0.34 6 0 6 C0 4.02 0 2.04 0 0 Z " fill="#DB202C" transform="translate(66,62)"/>
<path d="M0 0 C0.33 0 0.66 0 1 0 C1 1.98 1 3.96 1 6 C0.67 6 0.34 6 0 6 C0 4.02 0 2.04 0 0 Z " fill="#DB202C" transform="translate(401,58)"/>
<path d="M0 0 C0.33 0 0.66 0 1 0 C1 1.98 1 3.96 1 6 C0.67 6 0.34 6 0 6 C0 4.02 0 2.04 0 0 Z " fill="#DB202C" transform="translate(402,52)"/>
<path d="M0 0 C0.33 0 0.66 0 1 0 C1 1.98 1 3.96 1 6 C0.67 6 0.34 6 0 6 C0 4.02 0 2.04 0 0 Z " fill="#DB202C" transform="translate(374,50)"/>
<path d="M0 0 C0.33 0 0.66 0 1 0 C1 1.98 1 3.96 1 6 C0.67 6 0.34 6 0 6 C0 4.02 0 2.04 0 0 Z " fill="#DB202C" transform="translate(399,49)"/>
<path d="M0 0 C0.33 0 0.66 0 1 0 C1 1.98 1 3.96 1 6 C0.67 6 0.34 6 0 6 C0 4.02 0 2.04 0 0 Z " fill="#DB202C" transform="translate(435,48)"/>
<path d="M0 0 C0.33 0 0.66 0 1 0 C1 1.98 1 3.96 1 6 C0.67 6 0.34 6 0 6 C0 4.02 0 2.04 0 0 Z " fill="#DB202C" transform="translate(54,48)"/>
<path d="M0 0 C0.33 0 0.66 0 1 0 C1 1.98 1 3.96 1 6 C0.67 6 0.34 6 0 6 C0 4.02 0 2.04 0 0 Z " fill="#DB202C" transform="translate(403,46)"/>
<path d="M0 0 C0.33 0 0.66 0 1 0 C1 1.98 1 3.96 1 6 C0.67 6 0.34 6 0 6 C0 4.02 0 2.04 0 0 Z " fill="#DB202C" transform="translate(373,44)"/>
<path d="M0 0 C0.33 0 0.66 0 1 0 C1 1.98 1 3.96 1 6 C0.67 6 0.34 6 0 6 C0 4.02 0 2.04 0 0 Z " fill="#DB202C" transform="translate(400,43)"/>
<path d="M0 0 C0.33 0 0.66 0 1 0 C1 1.98 1 3.96 1 6 C0.67 6 0.34 6 0 6 C0 4.02 0 2.04 0 0 Z " fill="#DB202C" transform="translate(55,42)"/>
<path d="M0 0 C0.33 0 0.66 0 1 0 C1 1.98 1 3.96 1 6 C0.67 6 0.34 6 0 6 C0 4.02 0 2.04 0 0 Z " fill="#DB202C" transform="translate(434,41)"/>
<path d="M0 0 C0.33 0 0.66 0 1 0 C1 1.98 1 3.96 1 6 C0.67 6 0.34 6 0 6 C0 4.02 0 2.04 0 0 Z " fill="#DB202C" transform="translate(86,41)"/>
<path d="M0 0 C0.33 0 0.66 0 1 0 C1 1.98 1 3.96 1 6 C0.67 6 0.34 6 0 6 C0 4.02 0 2.04 0 0 Z " fill="#DB202C" transform="translate(404,40)"/>
<path d="M0 0 C1.485 0.99 1.485 0.99 3 2 C2.67 2.66 2.34 3.32 2 4 C1.34 2.68 0.68 1.36 0 0 Z " fill="#DB202C" transform="translate(322,38)"/>
<path d="M0 0 C0.33 0 0.66 0 1 0 C1 1.98 1 3.96 1 6 C0.67 6 0.34 6 0 6 C0 4.02 0 2.04 0 0 Z " fill="#DB202C" transform="translate(372,37)"/>
<path d="M0 0 C0.33 0 0.66 0 1 0 C1 1.98 1 3.96 1 6 C0.67 6 0.34 6 0 6 C0 4.02 0 2.04 0 0 Z " fill="#DB202C" transform="translate(401,36)"/>
<path d="M0 0 C0.33 0 0.66 0 1 0 C1 1.98 1 3.96 1 6 C0.67 6 0.34 6 0 6 C0 4.02 0 2.04 0 0 Z " fill="#DB202C" transform="translate(70,36)"/>
<path d="M0 0 C0.33 0 0.66 0 1 0 C1 1.98 1 3.96 1 6 C0.67 6 0.34 6 0 6 C0 4.02 0 2.04 0 0 Z " fill="#DB202C" transform="translate(56,36)"/>
<path d="M0 0 C0.33 0 0.66 0 1 0 C1 1.98 1 3.96 1 6 C0.67 6 0.34 6 0 6 C0 4.02 0 2.04 0 0 Z " fill="#DB202C" transform="translate(433,35)"/>
<path d="M0 0 C0.33 0 0.66 0 1 0 C1 1.98 1 3.96 1 6 C0.67 6 0.34 6 0 6 C0 4.02 0 2.04 0 0 Z " fill="#DB202C" transform="translate(405,34)"/>
<path d="M0 0 C1.485 0.99 1.485 0.99 3 2 C2.67 2.66 2.34 3.32 2 4 C1.34 2.68 0.68 1.36 0 0 Z " fill="#DB202C" transform="translate(297,33)"/>
<path d="M0 0 C0.33 0 0.66 0 1 0 C1 1.98 1 3.96 1 6 C0.67 6 0.34 6 0 6 C0 4.02 0 2.04 0 0 Z " fill="#DB202C" transform="translate(371,31)"/>
<path d="M0 0 C0.33 0 0.66 0 1 0 C1 1.98 1 3.96 1 6 C0.67 6 0.34 6 0 6 C0 4.02 0 2.04 0 0 Z " fill="#DB202C" transform="translate(402,30)"/>
<path d="M0 0 C0.33 0 0.66 0 1 0 C1 1.98 1 3.96 1 6 C0.67 6 0.34 6 0 6 C0 4.02 0 2.04 0 0 Z " fill="#DB202C" transform="translate(432,29)"/>
<path d="M0 0 C0.33 0 0.66 0 1 0 C1 1.98 1 3.96 1 6 C0.67 6 0.34 6 0 6 C0 4.02 0 2.04 0 0 Z " fill="#DB202C" transform="translate(388,29)"/>
<path d="M0 0 C0.33 0 0.66 0 1 0 C1 1.98 1 3.96 1 6 C0.67 6 0.34 6 0 6 C0 4.02 0 2.04 0 0 Z " fill="#DB202C" transform="translate(385,25)"/>
<path d="M0 0 C0.33 0 0.66 0 1 0 C1 1.98 1 3.96 1 6 C0.67 6 0.34 6 0 6 C0 4.02 0 2.04 0 0 Z " fill="#DB202C" transform="translate(370,25)"/>
<path d="M0 0 C0.33 0 0.66 0 1 0 C1 1.98 1 3.96 1 6 C0.67 6 0.34 6 0 6 C0 4.02 0 2.04 0 0 Z " fill="#DB202C" transform="translate(31,25)"/>
<path d="M0 0 C0.33 0 0.66 0 1 0 C1 1.98 1 3.96 1 6 C0.67 6 0.34 6 0 6 C0 4.02 0 2.04 0 0 Z " fill="#DB202C" transform="translate(403,24)"/>
<path d="M0 0 C0.33 0 0.66 0 1 0 C1 1.98 1 3.96 1 6 C0.67 6 0.34 6 0 6 C0 4.02 0 2.04 0 0 Z " fill="#DB202C" transform="translate(431,22)"/>
<path d="M0 0 C0.33 0 0.66 0 1 0 C1 1.98 1 3.96 1 6 C0.67 6 0.34 6 0 6 C0 4.02 0 2.04 0 0 Z " fill="#DB202C" transform="translate(389,22)"/>
<path d="M0 0 C0.33 0 0.66 0 1 0 C1 1.98 1 3.96 1 6 C0.67 6 0.34 6 0 6 C0 4.02 0 2.04 0 0 Z " fill="#DB202C" transform="translate(369,19)"/>
<path d="M0 0 C0.33 0 0.66 0 1 0 C1 1.98 1 3.96 1 6 C0.67 6 0.34 6 0 6 C0 4.02 0 2.04 0 0 Z " fill="#DB202C" transform="translate(82,18)"/>
<path d="M0 0 C0.33 0 0.66 0 1 0 C1 1.98 1 3.96 1 6 C0.67 6 0.34 6 0 6 C0 4.02 0 2.04 0 0 Z " fill="#DB202C" transform="translate(32,18)"/>
<path d="M0 0 C0.33 0 0.66 0 1 0 C1 1.98 1 3.96 1 6 C0.67 6 0.34 6 0 6 C0 4.02 0 2.04 0 0 Z " fill="#DB202C" transform="translate(430,16)"/>
<path d="M0 0 C0.33 0 0.66 0 1 0 C1 1.98 1 3.96 1 6 C0.67 6 0.34 6 0 6 C0 4.02 0 2.04 0 0 Z " fill="#DB202C" transform="translate(390,16)"/>
<path d="M0 0 C0.33 0 0.66 0 1 0 C1 1.98 1 3.96 1 6 C0.67 6 0.34 6 0 6 C0 4.02 0 2.04 0 0 Z " fill="#DB202C" transform="translate(27,15)"/>
<path d="M0 0 C0.33 0 0.66 0 1 0 C1 1.98 1 3.96 1 6 C0.67 6 0.34 6 0 6 C0 4.02 0 2.04 0 0 Z " fill="#DB202C" transform="translate(368,13)"/>
<path d="M0 0 C0.33 0 0.66 0 1 0 C1 1.98 1 3.96 1 6 C0.67 6 0.34 6 0 6 C0 4.02 0 2.04 0 0 Z " fill="#DB202C" transform="translate(383,12)"/>
<path d="M0 0 C0.33 0 0.66 0 1 0 C1 1.98 1 3.96 1 6 C0.67 6 0.34 6 0 6 C0 4.02 0 2.04 0 0 Z " fill="#DB202C" transform="translate(81,12)"/>
<path d="M0 0 C0.33 0 0.66 0 1 0 C1 1.98 1 3.96 1 6 C0.67 6 0.34 6 0 6 C0 4.02 0 2.04 0 0 Z " fill="#DB202C" transform="translate(33,12)"/>
<path d="M0 0 C1.65 0 3.3 0 5 0 C5 0.33 5 0.66 5 1 C3.35 1 1.7 1 0 1 C0 0.67 0 0.34 0 0 Z " fill="#DB202C" transform="translate(53,71)"/>
<path d="M0 0 C0.99 0.33 1.98 0.66 3 1 C2.01 1.33 1.02 1.66 0 2 C0 1.34 0 0.68 0 0 Z " fill="#DB202C" transform="translate(118,65)"/>
<path d="M0 0 C0.33 0.99 0.66 1.98 1 3 C0.01 3.495 0.01 3.495 -1 4 C-0.67 2.68 -0.34 1.36 0 0 Z " fill="#DB202C" transform="translate(248,55)"/>
<path d="M0 0 C0.33 0 0.66 0 1 0 C1 1.65 1 3.3 1 5 C0.67 5 0.34 5 0 5 C0 3.35 0 1.7 0 0 Z " fill="#DB202C" transform="translate(87,47)"/>
<path d="M0 0 C0.33 0 0.66 0 1 0 C1 1.65 1 3.3 1 5 C0.67 5 0.34 5 0 5 C0 3.35 0 1.7 0 0 Z " fill="#DB202C" transform="translate(85,36)"/>
<path d="M0 0 C0.33 0 0.66 0 1 0 C1 1.65 1 3.3 1 5 C0.67 5 0.34 5 0 5 C0 3.35 0 1.7 0 0 Z " fill="#DB202C" transform="translate(57,31)"/>
<path d="M0 0 C0.33 0 0.66 0 1 0 C1 1.65 1 3.3 1 5 C0.67 5 0.34 5 0 5 C0 3.35 0 1.7 0 0 Z " fill="#DB202C" transform="translate(84,30)"/>
<path d="M0 0 C0.33 0 0.66 0 1 0 C1 1.65 1 3.3 1 5 C0.67 5 0.34 5 0 5 C0 3.35 0 1.7 0 0 Z " fill="#DB202C" transform="translate(406,28)"/>
<path d="M0 0 C0.33 0 0.66 0 1 0 C1 1.65 1 3.3 1 5 C0.67 5 0.34 5 0 5 C0 3.35 0 1.7 0 0 Z " fill="#DB202C" transform="translate(58,25)"/>
<path d="M0 0 C0.33 0 0.66 0 1 0 C1 1.65 1 3.3 1 5 C0.67 5 0.34 5 0 5 C0 3.35 0 1.7 0 0 Z " fill="#DB202C" transform="translate(83,24)"/>
<path d="M0 0 C0.33 0 0.66 0 1 0 C1 1.65 1 3.3 1 5 C0.67 5 0.34 5 0 5 C0 3.35 0 1.7 0 0 Z " fill="#DB202C" transform="translate(407,22)"/>
<path d="M0 0 C0.33 0 0.66 0 1 0 C1 1.65 1 3.3 1 5 C0.67 5 0.34 5 0 5 C0 3.35 0 1.7 0 0 Z " fill="#DB202C" transform="translate(28,22)"/>
<path d="M0 0 C0.33 0 0.66 0 1 0 C1 1.65 1 3.3 1 5 C0.67 5 0.34 5 0 5 C0 3.35 0 1.7 0 0 Z " fill="#DB202C" transform="translate(384,19)"/>
<path d="M0 0 C0.33 0 0.66 0 1 0 C1 1.65 1 3.3 1 5 C0.67 5 0.34 5 0 5 C0 3.35 0 1.7 0 0 Z " fill="#DB202C" transform="translate(59,19)"/>
<path d="M0 0 C0.33 0 0.66 0 1 0 C1 1.65 1 3.3 1 5 C0.67 5 0.34 5 0 5 C0 3.35 0 1.7 0 0 Z " fill="#DB202C" transform="translate(404,18)"/>
<path d="M0 0 C0.33 0 0.66 0 1 0 C1 1.65 1 3.3 1 5 C0.67 5 0.34 5 0 5 C0 3.35 0 1.7 0 0 Z " fill="#DB202C" transform="translate(408,16)"/>
<path d="M0 0 C0.33 0.66 0.66 1.32 1 2 C0.34 2.66 -0.32 3.32 -1 4 C-0.67 2.68 -0.34 1.36 0 0 Z " fill="#DB202C" transform="translate(296,14)"/>
<path d="M0 0 C0.33 0 0.66 0 1 0 C1 1.65 1 3.3 1 5 C0.67 5 0.34 5 0 5 C0 3.35 0 1.7 0 0 Z " fill="#DB202C" transform="translate(60,13)"/>
<path d="M0 0 C0.33 0 0.66 0 1 0 C1 1.65 1 3.3 1 5 C0.67 5 0.34 5 0 5 C0 3.35 0 1.7 0 0 Z " fill="#DB202C" transform="translate(405,12)"/>
<path d="M0 0 C4 1 4 1 4 1 Z " fill="#DB202C" transform="translate(432,75)"/>
<path d="M0 0 C4 1 4 1 4 1 Z " fill="#DB202C" transform="translate(10,75)"/>
<path d="M0 0 C1 4 1 4 1 4 Z " fill="#DB202C" transform="translate(423,68)"/>
<path d="M0 0 C1 4 1 4 1 4 Z " fill="#DB202C" transform="translate(293,48)"/>
<path d="M0 0 C1 4 1 4 1 4 Z " fill="#DB202C" transform="translate(429,11)"/>
<path d="M0 0 C1 4 1 4 1 4 Z " fill="#DB202C" transform="translate(409,11)"/>
<path d="M0 0 C1 4 1 4 1 4 Z " fill="#DB202C" transform="translate(391,11)"/>
<path d="M0 0 C1 4 1 4 1 4 Z " fill="#DB202C" transform="translate(26,11)"/>
<path d="M0 0 C0.33 0.66 0.66 1.32 1 2 C0.34 1.67 -0.32 1.34 -1 1 C-0.67 0.67 -0.34 0.34 0 0 Z " fill="#DB202C" transform="translate(413,71)"/>
<path d="M0 0 C0.33 0.66 0.66 1.32 1 2 C0.34 1.67 -0.32 1.34 -1 1 C-0.67 0.67 -0.34 0.34 0 0 Z " fill="#DB202C" transform="translate(36,71)"/>
<path d="" fill="#DB202C" transform="translate(0,0)"/>
<path d="M0 0 C0.66 0.66 1.32 1.32 2 2 C1.34 2 0.68 2 0 2 C0 1.34 0 0.68 0 0 Z " fill="#DB202C" transform="translate(344,66)"/>
<path d="M0 0 C0.66 0.66 1.32 1.32 2 2 C1.34 2 0.68 2 0 2 C0 1.34 0 0.68 0 0 Z " fill="#DB202C" transform="translate(142,64)"/>
<path d="M0 0 C0.33 0.66 0.66 1.32 1 2 C0.34 1.67 -0.32 1.34 -1 1 C-0.67 0.67 -0.34 0.34 0 0 Z " fill="#DB202C" transform="translate(179,63)"/>
<path d="M0 0 C0.66 0 1.32 0 2 0 C1.67 0.66 1.34 1.32 1 2 C0.67 1.34 0.34 0.68 0 0 Z " fill="#DB202C" transform="translate(372,57)"/>
<path d="" fill="#DB202C" transform="translate(0,0)"/>
<path d="M0 0 C0.66 0 1.32 0 2 0 C1.67 0.66 1.34 1.32 1 2 C0.67 1.34 0.34 0.68 0 0 Z " fill="#DB202C" transform="translate(322,11)"/>
<path d="M0 0 C0.99 0.495 0.99 0.495 2 1 C1.01 1.495 1.01 1.495 0 2 C0 1.34 0 0.68 0 0 Z " fill="#DB202C" transform="translate(61,10)"/>
<path d="" fill="#DB202C" transform="translate(0,0)"/>
<path d="" fill="#DB202C" transform="translate(0,0)"/>
<path d="" fill="#DB202C" transform="translate(0,0)"/>
<path d="" fill="#DB202C" transform="translate(0,0)"/>
<path d="M0 0 C2 1 2 1 2 1 Z " fill="#DB202C" transform="translate(303,66)"/>
<path d="M0 0 C2 1 2 1 2 1 Z " fill="#DB202C" transform="translate(301,65)"/>
<path d="" fill="#DB202C" transform="translate(0,0)"/>
<path d="" fill="#DB202C" transform="translate(0,0)"/>
<path d="" fill="#DB202C" transform="translate(0,0)"/>
<path d="" fill="#DB202C" transform="translate(0,0)"/>
<path d="" fill="#DB202C" transform="translate(0,0)"/>
<path d="" fill="#DB202C" transform="translate(0,0)"/>
<path d="" fill="#DB202C" transform="translate(0,0)"/>
<path d="" fill="#DB202C" transform="translate(0,0)"/>
<path d="" fill="#DB202C" transform="translate(0,0)"/>
<path d="" fill="#DB202C" transform="translate(0,0)"/>
<path d="" fill="#DB202C" transform="translate(0,0)"/>
<path d="" fill="#DB202C" transform="translate(0,0)"/>
<path d="" fill="#DB202C" transform="translate(0,0)"/>
<path d="" fill="#DB202C" transform="translate(0,0)"/>
<path d="M0 0 C2 1 2 1 2 1 Z " fill="#DB202C" transform="translate(165,10)"/>
<path d="" fill="#DB202C" transform="translate(0,0)"/>
<path d="" fill="#DB202C" transform="translate(0,0)"/>
<path d="" fill="#DB202C" transform="translate(0,0)"/>
<path d="" fill="#DB202C" transform="translate(0,0)"/>
<path d="" fill="#DB202C" transform="translate(0,0)"/>
<path d="" fill="#DB202C" transform="translate(0,0)"/>
<path d="" fill="#DB202C" transform="translate(0,0)"/>
<path d="" fill="#DB202C" transform="translate(0,0)"/>
<path d="" fill="#DB202C" transform="translate(0,0)"/>
<path d="" fill="#DB202C" transform="translate(0,0)"/>
<path d="" fill="#DB202C" transform="translate(0,0)"/>
<path d="" fill="#DB202C" transform="translate(0,0)"/>
<path d="" fill="#DB202C" transform="translate(0,0)"/>
<path d="" fill="#DB202C" transform="translate(0,0)"/>
<path d="" fill="#DB202C" transform="translate(0,0)"/>
<path d="" fill="#DB202C" transform="translate(0,0)"/>
<path d="" fill="#DB202C" transform="translate(0,0)"/>
<path d="" fill="#DB202C" transform="translate(0,0)"/>
<path d="" fill="#DB202C" transform="translate(0,0)"/>
<path d="" fill="#DB202C" transform="translate(0,0)"/>
<path d="" fill="#DB202C" transform="translate(0,0)"/>
<path d="" fill="#DB202C" transform="translate(0,0)"/>
<path d="" fill="#DB202C" transform="translate(0,0)"/>
<path d="" fill="#DB202C" transform="translate(0,0)"/>
<path d="" fill="#DB202C" transform="translate(0,0)"/>
<path d="" fill="#DB202C" transform="translate(0,0)"/>
<path d="" fill="#DB202C" transform="translate(0,0)"/>
<path d="" fill="#DB202C" transform="translate(0,0)"/>
<path d="" fill="#DB202C" transform="translate(0,0)"/>
<path d="" fill="#DB202C" transform="translate(0,0)"/>
<path d="" fill="#DB202C" transform="translate(0,0)"/>
<path d="" fill="#DB202C" transform="translate(0,0)"/>
<path d="" fill="#DB202C" transform="translate(0,0)"/>
<path d="" fill="#DB202C" transform="translate(0,0)"/>
<path d="" fill="#DB202C" transform="translate(0,0)"/>
<path d="" fill="#DB202C" transform="translate(0,0)"/>
<path d="" fill="#DB202C" transform="translate(0,0)"/>
<path d="" fill="#DB202C" transform="translate(0,0)"/>
<path d="" fill="#DB202C" transform="translate(0,0)"/>
<path d="" fill="#DB202C" transform="translate(0,0)"/>
<path d="" fill="#DB202C" transform="translate(0,0)"/>
<path d="" fill="#DB202C" transform="translate(0,0)"/>
<path d="" fill="#DB202C" transform="translate(0,0)"/>
<path d="" fill="#DB202C" transform="translate(0,0)"/>
<path d="" fill="#DB202C" transform="translate(0,0)"/>
<path d="" fill="#DB202C" transform="translate(0,0)"/>
<path d="" fill="#DB202C" transform="translate(0,0)"/>
<path d="" fill="#DB202C" transform="translate(0,0)"/>
<path d="" fill="#DB202C" transform="translate(0,0)"/>
</svg>
